# xmcd CD database file
#
# Track frame offsets:
#	150
#	2053
#	10525
#	23654
#	38063
#	51919
#	71070
#	83672
#	100112
#	117895
#
# Disc length: 1780 seconds
#
# Revision: 0
# Processed by: cddbd v1.5.2PL0 Copyright (c) Steve Scherf et al.
# Submitted via: CDex 1.51
#
DISCID=6b06f20a
DTITLE=WE'LL MAKE IT RIGHT - We'll Right It Make
DYEAR=2011
DGENRE=Jazz
TTITLE0=Maite
TTITLE1=1+1=1
TTITLE2=Car Wreck
TTITLE3=Another Song
TTITLE4=Little Things
TTITLE5=To Make Love Groove
TTITLE6=I Think I Might
TTITLE7=Hey Baby
TTITLE8=Almost There
TTITLE9=Mr and Mrs Woodman
EXTD=YEAR: 2011
EXTT0=
EXTT1=
EXTT2=
EXTT3=
EXTT4=
EXTT5=
EXTT6=
EXTT7=
EXTT8=
EXTT9=
PLAYORDER=
